# Tiled2Unity generated file. Do not modify by hand.
# Wavefront file for 'test-01_mesh_0002.obj'

# Vertices (Count = 36)
v -6 -5 0
v -7 -5 0
v -7 -4 0
v -6 -4 0
v -7 -5 0
v -8 -5 0
v -8 -4 0
v -7 -4 0
v -8 -5 0
v -9 -5 0
v -9 -4 0
v -8 -4 0
v -6 -6 0
v -7 -6 0
v -7 -5 0
v -6 -5 0
v -7 -6 0
v -8 -6 0
v -8 -5 0
v -7 -5 0
v -8 -6 0
v -9 -6 0
v -9 -5 0
v -8 -5 0
v -6 -7 0
v -7 -7 0
v -7 -6 0
v -6 -6 0
v -7 -7 0
v -8 -7 0
v -8 -6 0
v -7 -6 0
v -8 -7 0
v -9 -7 0
v -9 -6 0
v -8 -6 0

# Texture cooridinates (Count = 16)
vt 0.25 0.9333333
vt 0.2571429 0.9333333
vt 0.2571429 0.94
vt 0.25 0.94
vt 0.2642857 0.9333333
vt 0.2642857 0.94
vt 0.2714286 0.9333333
vt 0.2714286 0.94
vt 0.25 0.9266667
vt 0.2571429 0.9266667
vt 0.2642857 0.9266667
vt 0.2714286 0.9266667
vt 0.25 0.92
vt 0.2571429 0.92
vt 0.2642857 0.92
vt 0.2714286 0.92

# Normal
vn 0 0 -1

# Mesh description
g test-01_mesh_0002

# Faces
f 1/1/1 2/2/1 3/3/1 4/4/1
f 5/2/1 6/5/1 7/6/1 8/3/1
f 9/5/1 10/7/1 11/8/1 12/6/1
f 13/9/1 14/10/1 15/2/1 16/1/1
f 17/10/1 18/11/1 19/5/1 20/2/1
f 21/11/1 22/12/1 23/7/1 24/5/1
f 25/13/1 26/14/1 27/10/1 28/9/1
f 29/14/1 30/15/1 31/11/1 32/10/1
f 33/15/1 34/16/1 35/12/1 36/11/1

